<?xml version="1.0" encoding="UTF-8"?>
<svg id="Layer_1" data-name="Layer 1" xmlns="http://www.w3.org/2000/svg" viewBox="0 0 1400 900">
  <defs>
    <style>
      .cls-1 {
        fill: #0000e6;
      }
    </style>
  </defs>
  <path class="cls-1" d="M775,200h-75v75c0,13.81,11.19,25,25,25h75v-75c0-13.81-11.19-25-25-25Z"/>
  <path class="cls-1" d="M900,175v125h-100v50c0,27.61,22.39,50,50,50h150V0h-250c-27.61,0-50,22.39-50,50v50h125c41.42,0,75,33.58,75,75Z"/>
  <path class="cls-1" d="M700,100h-375c-13.81,0-25,11.19-25,25v75h400v-100Z"/>
  <path class="cls-1" d="M25,400c-13.81,0-25,11.19-25,25v250c0,13.81,11.19,25,25,25h75v-300H25Z"/>
  <path class="cls-1" d="M1300,350v150h50c27.61,0,50-22.39,50-50v-250h-150c-27.61,0-50,22.39-50,50v50h50c27.61,0,50,22.39,50,50Z"/>
  <path class="cls-1" d="M1050,500c27.61,0,50-22.39,50-50v-50h-100v100h50Z"/>
  <path class="cls-1" d="M1200,375v-75h-75c-13.81,0-25,11.19-25,25v75h75c13.81,0,25-11.19,25-25Z"/>
  <path class="cls-1" d="M200,875c0,13.81,11.19,25,25,25h650c13.81,0,25-11.19,25-25v-75H200v75Z"/>
  <rect class="cls-1" x="500" y="600" width="200" height="100" rx="25" ry="25"/>
  <rect class="cls-1" x="200" y="500" width="100" height="100" rx="25" ry="25"/>
  <path class="cls-1" d="M1250,500c-27.61,0-50,22.39-50,50v50h100v-100h-50Z"/>
  <path class="cls-1" d="M1250,700h-150v50c0,27.61,22.39,50,50,50h250v-150c0-27.61-22.39-50-50-50h-50v50c0,27.61-22.39,50-50,50Z"/>
  <path class="cls-1" d="M300,275v-75h-75c-13.81,0-25,11.19-25,25v75h75c13.81,0,25-11.19,25-25Z"/>
  <path class="cls-1" d="M164.45,700h-64.45v64.45c0,19.64,15.92,35.55,35.55,35.55h64.45v-64.45c0-19.64-15.92-35.55-35.55-35.55Z"/>
  <path class="cls-1" d="M1050,600c-27.61,0-50,22.39-50,50v50h100v-100h-50Z"/>
  <path class="cls-1" d="M200,375v-75h-75c-13.81,0-25,11.19-25,25v75h75c13.81,0,25-11.19,25-25Z"/>
  <path class="cls-1" d="M900,725v75h75c13.81,0,25-11.19,25-25v-75h-75c-13.81,0-25,11.19-25,25Z"/>
</svg>
